<svg id="svgcontent_0" xmlns="http://www.w3.org/2000/svg" xmlns:xlink="http://www.w3.org/1999/xlink" height="240" viewBox="0 0 600 240" width="600" overflow="hidden"><style type="text/css">text{font-size:11pt;font-style:normal;font-variant:normal;font-weight:normal;font-stretch:normal;text-align:center;fill-opacity:1;font-family:Helvetica}.s10{color:#000000;display:inline;enable-background:accumulate;fill-opacity:1;fill-rule:nonzero;fill:#ffffff;marker:none;overflow:visible;stroke-width:1px;stroke:none;visibility:visible}.s5{fill:#ffffff;stroke:none}.s1{fill:none;stroke-dasharray:none;stroke-linecap:round;stroke-linejoin:miter;stroke-miterlimit:4;stroke-opacity:1;stroke-width:1;stroke:#000000}.s2{fill:none;stroke-dasharray:none;stroke-linecap:round;stroke-linejoin:miter;stroke-miterlimit:4;stroke-opacity:1;stroke-width:0.5;stroke:#000000}.s6{color:#000000;display:inline;enable-background:accumulate;fill-opacity:1;fill-rule:nonzero;fill:#ffffb4;marker:none;overflow:visible;stroke-width:1px;stroke:none;visibility:visible}.s7{color:#000000;display:inline;enable-background:accumulate;fill-opacity:1;fill-rule:nonzero;fill:#ffe0b9;marker:none;overflow:visible;stroke-width:1px;stroke:none;visibility:visible}.s8{color:#000000;display:inline;enable-background:accumulate;fill-opacity:1;fill-rule:nonzero;fill:#b9e0ff;marker:none;overflow:visible;stroke-width:1px;stroke:none;visibility:visible}.s9{fill-opacity:1;fill:#000000;stroke-dasharray:none;stroke-linecap:round;stroke-linejoin:miter;stroke-miterlimit:4;stroke-opacity:1;stroke-width:1;stroke:#000000}.s4{color:#000000;display:inline;fill:none;marker:none;overflow:visible;stroke-dasharray:none;stroke-dashoffset:0;stroke-linecap:round;stroke-linejoin:miter;stroke-miterlimit:4;stroke-opacity:1;stroke-width:1;stroke:#000000;visibility:visible}.s3{color:#000000;display:inline;enable-background:accumulate;fill:none;marker:none;overflow:visible;stroke-dasharray:1, 3;stroke-dashoffset:0;stroke-linecap:round;stroke-linejoin:miter;stroke-miterlimit:4;stroke-opacity:1;stroke-width:1;stroke:#000000;visibility:visible}</style><defs><g id="wavetemps" style="display: none;"><g id="socket"><rect height="20" width="20" x="6" y="15"></rect></g><g id="pclk"><path class="s1" d="M 0,20 0,0 20,0"></path></g><g id="nclk"><path class="s1" d="m 0,0 0,20 20,0"></path></g><g id="000"><path class="s1" d="m 0,20 20,0"></path></g><g id="0m0"><path class="s1" d="m 0,20 3,0 3,-10 3,10 11,0"></path></g><g id="0m1"><path class="s1" d="M 0,20 3,20 9,0 20,0"></path></g><g id="0mx"><path class="s1" d="M 3,20 9,0 20,0"></path><path class="s2" d="m 20,15 -5,5"></path><path class="s2" d="M 20,10 10,20"></path><path class="s2" d="M 20,5 5,20"></path><path class="s2" d="M 20,0 4,16"></path><path class="s2" d="M 15,0 6,9"></path><path class="s2" d="M 10,0 9,1"></path><path class="s1" d="m 0,20 20,0"></path></g><g id="0md"><path class="s3" d="m 8,20 10,0"></path><path class="s1" d="m 0,20 5,0"></path></g><g id="0mu"><path class="s1" d="m 0,20 3,0 C 7,10 10.107603,0 20,0"></path></g><g id="0mz"><path class="s1" d="m 0,20 3,0 C 10,10 15,10 20,10"></path></g><g id="111"><path class="s1" d="M 0,0 20,0"></path></g><g id="1m0"><path class="s1" d="m 0,0 3,0 6,20 11,0"></path></g><g id="1m1"><path class="s1" d="M 0,0 3,0 6,10 9,0 20,0"></path></g><g id="1mx"><path class="s1" d="m 3,0 6,20 11,0"></path><path class="s1" d="M 0,0 20,0"></path><path class="s2" d="m 20,15 -5,5"></path><path class="s2" d="M 20,10 10,20"></path><path class="s2" d="M 20,5 8,17"></path><path class="s2" d="M 20,0 7,13"></path><path class="s2" d="M 15,0 6,9"></path><path class="s2" d="M 10,0 5,5"></path><path class="s2" d="M 3.5,1.5 5,0"></path></g><g id="1md"><path class="s1" d="m 0,0 3,0 c 4,10 7,20 17,20"></path></g><g id="1mu"><path class="s1" d="M 0,0 5,0"></path><path class="s3" d="M 8,0 18,0"></path></g><g id="1mz"><path class="s1" d="m 0,0 3,0 c 7,10 12,10 17,10"></path></g><g id="xxx"><path class="s1" d="m 0,20 20,0"></path><path class="s1" d="M 0,0 20,0"></path><path class="s2" d="M 0,5 5,0"></path><path class="s2" d="M 0,10 10,0"></path><path class="s2" d="M 0,15 15,0"></path><path class="s2" d="M 0,20 20,0"></path><path class="s2" d="M 5,20 20,5"></path><path class="s2" d="M 10,20 20,10"></path><path class="s2" d="m 15,20 5,-5"></path></g><g id="xm0"><path class="s1" d="M 0,0 4,0 9,20"></path><path class="s1" d="m 0,20 20,0"></path><path class="s2" d="M 0,5 4,1"></path><path class="s2" d="M 0,10 5,5"></path><path class="s2" d="M 0,15 6,9"></path><path class="s2" d="M 0,20 7,13"></path><path class="s2" d="M 5,20 8,17"></path></g><g id="xm1"><path class="s1" d="M 0,0 20,0"></path><path class="s1" d="M 0,20 4,20 9,0"></path><path class="s2" d="M 0,5 5,0"></path><path class="s2" d="M 0,10 9,1"></path><path class="s2" d="M 0,15 7,8"></path><path class="s2" d="M 0,20 5,15"></path></g><g id="xmx"><path class="s1" d="m 0,20 20,0"></path><path class="s1" d="M 0,0 20,0"></path><path class="s2" d="M 0,5 5,0"></path><path class="s2" d="M 0,10 10,0"></path><path class="s2" d="M 0,15 15,0"></path><path class="s2" d="M 0,20 20,0"></path><path class="s2" d="M 5,20 20,5"></path><path class="s2" d="M 10,20 20,10"></path><path class="s2" d="m 15,20 5,-5"></path></g><g id="xmd"><path class="s1" d="m 0,0 4,0 c 3,10 6,20 16,20"></path><path class="s1" d="m 0,20 20,0"></path><path class="s2" d="M 0,5 4,1"></path><path class="s2" d="M 0,10 5.5,4.5"></path><path class="s2" d="M 0,15 6.5,8.5"></path><path class="s2" d="M 0,20 8,12"></path><path class="s2" d="m 5,20 5,-5"></path><path class="s2" d="m 10,20 2.5,-2.5"></path></g><g id="xmu"><path class="s1" d="M 0,0 20,0"></path><path class="s1" d="m 0,20 4,0 C 7,10 10,0 20,0"></path><path class="s2" d="M 0,5 5,0"></path><path class="s2" d="M 0,10 10,0"></path><path class="s2" d="M 0,15 10,5"></path><path class="s2" d="M 0,20 6,14"></path></g><g id="xmz"><path class="s1" d="m 0,0 4,0 c 6,10 11,10 16,10"></path><path class="s1" d="m 0,20 4,0 C 10,10 15,10 20,10"></path><path class="s2" d="M 0,5 4.5,0.5"></path><path class="s2" d="M 0,10 6.5,3.5"></path><path class="s2" d="M 0,15 8.5,6.5"></path><path class="s2" d="M 0,20 11.5,8.5"></path></g><g id="ddd"><path class="s3" d="m 0,20 20,0"></path></g><g id="dm0"><path class="s3" d="m 0,20 10,0"></path><path class="s1" d="m 12,20 8,0"></path></g><g id="dm1"><path class="s1" d="M 0,20 3,20 9,0 20,0"></path></g><g id="dmx"><path class="s1" d="M 3,20 9,0 20,0"></path><path class="s2" d="m 20,15 -5,5"></path><path class="s2" d="M 20,10 10,20"></path><path class="s2" d="M 20,5 5,20"></path><path class="s2" d="M 20,0 4,16"></path><path class="s2" d="M 15,0 6,9"></path><path class="s2" d="M 10,0 9,1"></path><path class="s1" d="m 0,20 20,0"></path></g><g id="dmd"><path class="s3" d="m 0,20 20,0"></path></g><g id="dmu"><path class="s1" d="m 0,20 3,0 C 7,10 10.107603,0 20,0"></path></g><g id="dmz"><path class="s1" d="m 0,20 3,0 C 10,10 15,10 20,10"></path></g><g id="uuu"><path class="s3" d="M 0,0 20,0"></path></g><g id="um0"><path class="s1" d="m 0,0 3,0 6,20 11,0"></path></g><g id="um1"><path class="s3" d="M 0,0 10,0"></path><path class="s1" d="m 12,0 8,0"></path></g><g id="umx"><path class="s1" d="m 3,0 6,20 11,0"></path><path class="s1" d="M 0,0 20,0"></path><path class="s2" d="m 20,15 -5,5"></path><path class="s2" d="M 20,10 10,20"></path><path class="s2" d="M 20,5 8,17"></path><path class="s2" d="M 20,0 7,13"></path><path class="s2" d="M 15,0 6,9"></path><path class="s2" d="M 10,0 5,5"></path><path class="s2" d="M 3.5,1.5 5,0"></path></g><g id="umd"><path class="s1" d="m 0,0 3,0 c 4,10 7,20 17,20"></path></g><g id="umu"><path class="s3" d="M 0,0 20,0"></path></g><g id="umz"><path class="s4" d="m 0,0 3,0 c 7,10 12,10 17,10"></path></g><g id="zzz"><path class="s1" d="m 0,10 20,0"></path></g><g id="zm0"><path class="s1" d="m 0,10 6,0 3,10 11,0"></path></g><g id="zm1"><path class="s1" d="M 0,10 6,10 9,0 20,0"></path></g><g id="zmx"><path class="s1" d="m 6,10 3,10 11,0"></path><path class="s1" d="M 0,10 6,10 9,0 20,0"></path><path class="s2" d="m 20,15 -5,5"></path><path class="s2" d="M 20,10 10,20"></path><path class="s2" d="M 20,5 8,17"></path><path class="s2" d="M 20,0 7,13"></path><path class="s2" d="M 15,0 6.5,8.5"></path><path class="s2" d="M 10,0 9,1"></path></g><g id="zmd"><path class="s1" d="m 0,10 7,0 c 3,5 8,10 13,10"></path></g><g id="zmu"><path class="s1" d="m 0,10 7,0 C 10,5 15,0 20,0"></path></g><g id="zmz"><path class="s1" d="m 0,10 20,0"></path></g><g id="gap"><path class="s5" d="m 7,-2 -4,0 c -5,0 -5,24 -10,24 l 4,0 C 2,22 2,-2 7,-2 z"></path><path class="s1" d="M -7,22 C -2,22 -2,-2 3,-2"></path><path class="s1" d="M -3,22 C 2,22 2,-2 7,-2"></path></g><g id="0mv-3"><path class="s6" d="M 9,0 20,0 20,20 3,20 z"></path><path class="s1" d="M 3,20 9,0 20,0"></path><path class="s1" d="m 0,20 20,0"></path></g><g id="1mv-3"><path class="s6" d="M 2.875,0 20,0 20,20 9,20 z"></path><path class="s1" d="m 3,0 6,20 11,0"></path><path class="s1" d="M 0,0 20,0"></path></g><g id="xmv-3"><path class="s6" d="M 9,0 20,0 20,20 9,20 6,10 z"></path><path class="s1" d="M 0,20 3,20 9,0 20,0"></path><path class="s1" d="m 0,0 3,0 6,20 11,0"></path><path class="s2" d="M 0,5 3.5,1.5"></path><path class="s2" d="M 0,10 4.5,5.5"></path><path class="s2" d="M 0,15 6,9"></path><path class="s2" d="M 0,20 4,16"></path></g><g id="dmv-3"><path class="s6" d="M 9,0 20,0 20,20 3,20 z"></path><path class="s1" d="M 3,20 9,0 20,0"></path><path class="s1" d="m 0,20 20,0"></path></g><g id="umv-3"><path class="s6" d="M 3,0 20,0 20,20 9,20 z"></path><path class="s1" d="m 3,0 6,20 11,0"></path><path class="s1" d="M 0,0 20,0"></path></g><g id="zmv-3"><path class="s6" d="M 9,0 20,0 20,20 9,20 6,10 z"></path><path class="s1" d="m 6,10 3,10 11,0"></path><path class="s1" d="M 0,10 6,10 9,0 20,0"></path></g><g id="vvv-3"><path class="s6" d="M 20,20 0,20 0,0 20,0"></path><path class="s1" d="m 0,20 20,0"></path><path class="s1" d="M 0,0 20,0"></path></g><g id="vm0-3"><path class="s6" d="M 0,20 0,0 3,0 9,20"></path><path class="s1" d="M 0,0 3,0 9,20"></path><path class="s1" d="m 0,20 20,0"></path></g><g id="vm1-3"><path class="s6" d="M 0,0 0,20 3,20 9,0"></path><path class="s1" d="M 0,0 20,0"></path><path class="s1" d="M 0,20 3,20 9,0"></path></g><g id="vmx-3"><path class="s6" d="M 0,0 0,20 3,20 6,10 3,0"></path><path class="s1" d="m 0,0 3,0 6,20 11,0"></path><path class="s1" d="M 0,20 3,20 9,0 20,0"></path><path class="s2" d="m 20,15 -5,5"></path><path class="s2" d="M 20,10 10,20"></path><path class="s2" d="M 20,5 8,17"></path><path class="s2" d="M 20,0 7,13"></path><path class="s2" d="M 15,0 7,8"></path><path class="s2" d="M 10,0 9,1"></path></g><g id="vmd-3"><path class="s6" d="m 0,0 0,20 20,0 C 10,20 7,10 3,0"></path><path class="s1" d="m 0,0 3,0 c 4,10 7,20 17,20"></path><path class="s1" d="m 0,20 20,0"></path></g><g id="vmu-3"><path class="s6" d="m 0,0 0,20 3,0 C 7,10 10,0 20,0"></path><path class="s1" d="m 0,20 3,0 C 7,10 10,0 20,0"></path><path class="s1" d="M 0,0 20,0"></path></g><g id="vmz-3"><path class="s6" d="M 0,0 3,0 C 10,10 15,10 20,10 15,10 10,10 3,20 L 0,20"></path><path class="s1" d="m 0,0 3,0 c 7,10 12,10 17,10"></path><path class="s1" d="m 0,20 3,0 C 10,10 15,10 20,10"></path></g><g id="vmv-3-3"><path class="s6" d="M 9,0 20,0 20,20 9,20 6,10 z"></path><path class="s6" d="M 3,0 0,0 0,20 3,20 6,10 z"></path><path class="s1" d="m 0,0 3,0 6,20 11,0"></path><path class="s1" d="M 0,20 3,20 9,0 20,0"></path></g><g id="vmv-3-4"><path class="s7" d="M 9,0 20,0 20,20 9,20 6,10 z"></path><path class="s6" d="M 3,0 0,0 0,20 3,20 6,10 z"></path><path class="s1" d="m 0,0 3,0 6,20 11,0"></path><path class="s1" d="M 0,20 3,20 9,0 20,0"></path></g><g id="vmv-3-5"><path class="s8" d="M 9,0 20,0 20,20 9,20 6,10 z"></path><path class="s6" d="M 3,0 0,0 0,20 3,20 6,10 z"></path><path class="s1" d="m 0,0 3,0 6,20 11,0"></path><path class="s1" d="M 0,20 3,20 9,0 20,0"></path></g><g id="vmv-4-3"><path class="s6" d="M 9,0 20,0 20,20 9,20 6,10 z"></path><path class="s7" d="M 3,0 0,0 0,20 3,20 6,10 z"></path><path class="s1" d="m 0,0 3,0 6,20 11,0"></path><path class="s1" d="M 0,20 3,20 9,0 20,0"></path></g><g id="vmv-4-4"><path class="s7" d="M 9,0 20,0 20,20 9,20 6,10 z"></path><path class="s7" d="M 3,0 0,0 0,20 3,20 6,10 z"></path><path class="s1" d="m 0,0 3,0 6,20 11,0"></path><path class="s1" d="M 0,20 3,20 9,0 20,0"></path></g><g id="vmv-4-5"><path class="s8" d="M 9,0 20,0 20,20 9,20 6,10 z"></path><path class="s7" d="M 3,0 0,0 0,20 3,20 6,10 z"></path><path class="s1" d="m 0,0 3,0 6,20 11,0"></path><path class="s1" d="M 0,20 3,20 9,0 20,0"></path></g><g id="vmv-5-3"><path class="s6" d="M 9,0 20,0 20,20 9,20 6,10 z"></path><path class="s8" d="M 3,0 0,0 0,20 3,20 6,10 z"></path><path class="s1" d="m 0,0 3,0 6,20 11,0"></path><path class="s1" d="M 0,20 3,20 9,0 20,0"></path></g><g id="vmv-5-4"><path class="s7" d="M 9,0 20,0 20,20 9,20 6,10 z"></path><path class="s8" d="M 3,0 0,0 0,20 3,20 6,10 z"></path><path class="s1" d="m 0,0 3,0 6,20 11,0"></path><path class="s1" d="M 0,20 3,20 9,0 20,0"></path></g><g id="vmv-5-5"><path class="s8" d="M 9,0 20,0 20,20 9,20 6,10 z"></path><path class="s8" d="M 3,0 0,0 0,20 3,20 6,10 z"></path><path class="s1" d="m 0,0 3,0 6,20 11,0"></path><path class="s1" d="M 0,20 3,20 9,0 20,0"></path></g><g id="0mv-4"><path class="s7" d="M 9,0 20,0 20,20 3,20 z"></path><path class="s1" d="M 3,20 9,0 20,0"></path><path class="s1" d="m 0,20 20,0"></path></g><g id="1mv-4"><path class="s7" d="M 2.875,0 20,0 20,20 9,20 z"></path><path class="s1" d="m 3,0 6,20 11,0"></path><path class="s1" d="M 0,0 20,0"></path></g><g id="xmv-4"><path class="s7" d="M 9,0 20,0 20,20 9,20 6,10 z"></path><path class="s1" d="M 0,20 3,20 9,0 20,0"></path><path class="s1" d="m 0,0 3,0 6,20 11,0"></path><path class="s2" d="M 0,5 3.5,1.5"></path><path class="s2" d="M 0,10 4.5,5.5"></path><path class="s2" d="M 0,15 6,9"></path><path class="s2" d="M 0,20 4,16"></path></g><g id="dmv-4"><path class="s7" d="M 9,0 20,0 20,20 3,20 z"></path><path class="s1" d="M 3,20 9,0 20,0"></path><path class="s1" d="m 0,20 20,0"></path></g><g id="umv-4"><path class="s7" d="M 3,0 20,0 20,20 9,20 z"></path><path class="s1" d="m 3,0 6,20 11,0"></path><path class="s1" d="M 0,0 20,0"></path></g><g id="zmv-4"><path class="s7" d="M 9,0 20,0 20,20 9,20 6,10 z"></path><path class="s1" d="m 6,10 3,10 11,0"></path><path class="s1" d="M 0,10 6,10 9,0 20,0"></path></g><g id="0mv-5"><path class="s8" d="M 9,0 20,0 20,20 3,20 z"></path><path class="s1" d="M 3,20 9,0 20,0"></path><path class="s1" d="m 0,20 20,0"></path></g><g id="1mv-5"><path class="s8" d="M 2.875,0 20,0 20,20 9,20 z"></path><path class="s1" d="m 3,0 6,20 11,0"></path><path class="s1" d="M 0,0 20,0"></path></g><g id="xmv-5"><path class="s8" d="M 9,0 20,0 20,20 9,20 6,10 z"></path><path class="s1" d="M 0,20 3,20 9,0 20,0"></path><path class="s1" d="m 0,0 3,0 6,20 11,0"></path><path class="s2" d="M 0,5 3.5,1.5"></path><path class="s2" d="M 0,10 4.5,5.5"></path><path class="s2" d="M 0,15 6,9"></path><path class="s2" d="M 0,20 4,16"></path></g><g id="dmv-5"><path class="s8" d="M 9,0 20,0 20,20 3,20 z"></path><path class="s1" d="M 3,20 9,0 20,0"></path><path class="s1" d="m 0,20 20,0"></path></g><g id="umv-5"><path class="s8" d="M 3,0 20,0 20,20 9,20 z"></path><path class="s1" d="m 3,0 6,20 11,0"></path><path class="s1" d="M 0,0 20,0"></path></g><g id="zmv-5"><path class="s8" d="M 9,0 20,0 20,20 9,20 6,10 z"></path><path class="s1" d="m 6,10 3,10 11,0"></path><path class="s1" d="M 0,10 6,10 9,0 20,0"></path></g><g id="vvv-4"><path class="s7" d="M 20,20 0,20 0,0 20,0"></path><path class="s1" d="m 0,20 20,0"></path><path class="s1" d="M 0,0 20,0"></path></g><g id="vm0-4"><path class="s7" d="M 0,20 0,0 3,0 9,20"></path><path class="s1" d="M 0,0 3,0 9,20"></path><path class="s1" d="m 0,20 20,0"></path></g><g id="vm1-4"><path class="s7" d="M 0,0 0,20 3,20 9,0"></path><path class="s1" d="M 0,0 20,0"></path><path class="s1" d="M 0,20 3,20 9,0"></path></g><g id="vmx-4"><path class="s7" d="M 0,0 0,20 3,20 6,10 3,0"></path><path class="s1" d="m 0,0 3,0 6,20 11,0"></path><path class="s1" d="M 0,20 3,20 9,0 20,0"></path><path class="s2" d="m 20,15 -5,5"></path><path class="s2" d="M 20,10 10,20"></path><path class="s2" d="M 20,5 8,17"></path><path class="s2" d="M 20,0 7,13"></path><path class="s2" d="M 15,0 7,8"></path><path class="s2" d="M 10,0 9,1"></path></g><g id="vmd-4"><path class="s7" d="m 0,0 0,20 20,0 C 10,20 7,10 3,0"></path><path class="s1" d="m 0,0 3,0 c 4,10 7,20 17,20"></path><path class="s1" d="m 0,20 20,0"></path></g><g id="vmu-4"><path class="s7" d="m 0,0 0,20 3,0 C 7,10 10,0 20,0"></path><path class="s1" d="m 0,20 3,0 C 7,10 10,0 20,0"></path><path class="s1" d="M 0,0 20,0"></path></g><g id="vmz-4"><path class="s7" d="M 0,0 3,0 C 10,10 15,10 20,10 15,10 10,10 3,20 L 0,20"></path><path class="s1" d="m 0,0 3,0 c 7,10 12,10 17,10"></path><path class="s1" d="m 0,20 3,0 C 10,10 15,10 20,10"></path></g><g id="vvv-5"><path class="s8" d="M 20,20 0,20 0,0 20,0"></path><path class="s1" d="m 0,20 20,0"></path><path class="s1" d="M 0,0 20,0"></path></g><g id="vm0-5"><path class="s8" d="M 0,20 0,0 3,0 9,20"></path><path class="s1" d="M 0,0 3,0 9,20"></path><path class="s1" d="m 0,20 20,0"></path></g><g id="vm1-5"><path class="s8" d="M 0,0 0,20 3,20 9,0"></path><path class="s1" d="M 0,0 20,0"></path><path class="s1" d="M 0,20 3,20 9,0"></path></g><g id="vmx-5"><path class="s8" d="M 0,0 0,20 3,20 6,10 3,0"></path><path class="s1" d="m 0,0 3,0 6,20 11,0"></path><path class="s1" d="M 0,20 3,20 9,0 20,0"></path><path class="s2" d="m 20,15 -5,5"></path><path class="s2" d="M 20,10 10,20"></path><path class="s2" d="M 20,5 8,17"></path><path class="s2" d="M 20,0 7,13"></path><path class="s2" d="M 15,0 7,8"></path><path class="s2" d="M 10,0 9,1"></path></g><g id="vmd-5"><path class="s8" d="m 0,0 0,20 20,0 C 10,20 7,10 3,0"></path><path class="s1" d="m 0,0 3,0 c 4,10 7,20 17,20"></path><path class="s1" d="m 0,20 20,0"></path></g><g id="vmu-5"><path class="s8" d="m 0,0 0,20 3,0 C 7,10 10,0 20,0"></path><path class="s1" d="m 0,20 3,0 C 7,10 10,0 20,0"></path><path class="s1" d="M 0,0 20,0"></path></g><g id="vmz-5"><path class="s8" d="M 0,0 3,0 C 10,10 15,10 20,10 15,10 10,10 3,20 L 0,20"></path><path class="s1" d="m 0,0 3,0 c 7,10 12,10 17,10"></path><path class="s1" d="m 0,20 3,0 C 10,10 15,10 20,10"></path></g><g id="Pclk"><path class="s9" d="M -2,11 0,5 2,11 C 1,10.5 -1,10.5 -2,11 z"></path><path class="s1" d="M 0,20 0,0 20,0"></path></g><g id="Nclk"><path class="s9" d="M -2,9 0,15 2,9 C 1,9.5 -1,9.5 -2,9 z"></path><path class="s1" d="m 0,0 0,20 20,0"></path></g><g id="vvv-2"><path class="s10" d="M 20,20 0,20 0,0 20,0"></path><path class="s1" d="m 0,20 20,0"></path><path class="s1" d="M 0,0 20,0"></path></g><g id="vm0-2"><path class="s10" d="M 0,20 0,0 3,0 9,20"></path><path class="s1" d="M 0,0 3,0 9,20"></path><path class="s1" d="m 0,20 20,0"></path></g><g id="vm1-2"><path class="s10" d="M 0,0 0,20 3,20 9,0"></path><path class="s1" d="M 0,0 20,0"></path><path class="s1" d="M 0,20 3,20 9,0"></path></g><g id="vmx-2"><path class="s10" d="M 0,0 0,20 3,20 6,10 3,0"></path><path class="s1" d="m 0,0 3,0 6,20 11,0"></path><path class="s1" d="M 0,20 3,20 9,0 20,0"></path><path class="s2" d="m 20,15 -5,5"></path><path class="s2" d="M 20,10 10,20"></path><path class="s2" d="M 20,5 8,17"></path><path class="s2" d="M 20,0 7,13"></path><path class="s2" d="M 15,0 7,8"></path><path class="s2" d="M 10,0 9,1"></path></g><g id="vmd-2"><path class="s10" d="m 0,0 0,20 20,0 C 10,20 7,10 3,0"></path><path class="s1" d="m 0,0 3,0 c 4,10 7,20 17,20"></path><path class="s1" d="m 0,20 20,0"></path></g><g id="vmu-2"><path class="s10" d="m 0,0 0,20 3,0 C 7,10 10,0 20,0"></path><path class="s1" d="m 0,20 3,0 C 7,10 10,0 20,0"></path><path class="s1" d="M 0,0 20,0"></path></g><g id="vmz-2"><path class="s10" d="M 0,0 3,0 C 10,10 15,10 20,10 15,10 10,10 3,20 L 0,20"></path><path class="s1" d="m 0,0 3,0 c 7,10 12,10 17,10"></path><path class="s1" d="m 0,20 3,0 C 10,10 15,10 20,10"></path></g><g id="0mv-2"><path class="s10" d="M 9,0 20,0 20,20 3,20 z"></path><path class="s1" d="M 3,20 9,0 20,0"></path><path class="s1" d="m 0,20 20,0"></path></g><g id="1mv-2"><path class="s10" d="M 2.875,0 20,0 20,20 9,20 z"></path><path class="s1" d="m 3,0 6,20 11,0"></path><path class="s1" d="M 0,0 20,0"></path></g><g id="xmv-2"><path class="s10" d="M 9,0 20,0 20,20 9,20 6,10 z"></path><path class="s1" d="M 0,20 3,20 9,0 20,0"></path><path class="s1" d="m 0,0 3,0 6,20 11,0"></path><path class="s2" d="M 0,5 3.5,1.5"></path><path class="s2" d="M 0,10 4.5,5.5"></path><path class="s2" d="M 0,15 6,9"></path><path class="s2" d="M 0,20 4,16"></path></g><g id="dmv-2"><path class="s10" d="M 9,0 20,0 20,20 3,20 z"></path><path class="s1" d="M 3,20 9,0 20,0"></path><path class="s1" d="m 0,20 20,0"></path></g><g id="umv-2"><path class="s10" d="M 3,0 20,0 20,20 9,20 z"></path><path class="s1" d="m 3,0 6,20 11,0"></path><path class="s1" d="M 0,0 20,0"></path></g><g id="zmv-2"><path class="s10" d="M 9,0 20,0 20,20 9,20 6,10 z"></path><path class="s1" d="m 6,10 3,10 11,0"></path><path class="s1" d="M 0,10 6,10 9,0 20,0"></path></g><g id="vmv-3-2"><path class="s10" d="M 9,0 20,0 20,20 9,20 6,10 z"></path><path class="s6" d="M 3,0 0,0 0,20 3,20 6,10 z"></path><path class="s1" d="m 0,0 3,0 6,20 11,0"></path><path class="s1" d="M 0,20 3,20 9,0 20,0"></path></g><g id="vmv-4-2"><path class="s10" d="M 9,0 20,0 20,20 9,20 6,10 z"></path><path class="s7" d="M 3,0 0,0 0,20 3,20 6,10 z"></path><path class="s1" d="m 0,0 3,0 6,20 11,0"></path><path class="s1" d="M 0,20 3,20 9,0 20,0"></path></g><g id="vmv-5-2"><path class="s10" d="M 9,0 20,0 20,20 9,20 6,10 z"></path><path class="s8" d="M 3,0 0,0 0,20 3,20 6,10 z"></path><path class="s1" d="m 0,0 3,0 6,20 11,0"></path><path class="s1" d="M 0,20 3,20 9,0 20,0"></path></g><g id="vmv-2-3"><path class="s6" d="M 9,0 20,0 20,20 9,20 6,10 z"></path><path class="s10" d="M 3,0 0,0 0,20 3,20 6,10 z"></path><path class="s1" d="m 0,0 3,0 6,20 11,0"></path><path class="s1" d="M 0,20 3,20 9,0 20,0"></path></g><g id="vmv-2-4"><path class="s7" d="M 9,0 20,0 20,20 9,20 6,10 z"></path><path class="s10" d="M 3,0 0,0 0,20 3,20 6,10 z"></path><path class="s1" d="m 0,0 3,0 6,20 11,0"></path><path class="s1" d="M 0,20 3,20 9,0 20,0"></path></g><g id="vmv-2-5"><path class="s8" d="M 9,0 20,0 20,20 9,20 6,10 z"></path><path class="s10" d="M 3,0 0,0 0,20 3,20 6,10 z"></path><path class="s1" d="m 0,0 3,0 6,20 11,0"></path><path class="s1" d="M 0,20 3,20 9,0 20,0"></path></g><g id="vmv-2-2"><path class="s10" d="M 9,0 20,0 20,20 9,20 6,10 z"></path><path class="s10" d="M 3,0 0,0 0,20 3,20 6,10 z"></path><path class="s1" d="m 0,0 3,0 6,20 11,0"></path><path class="s1" d="M 0,20 3,20 9,0 20,0"></path></g></g><marker id="arrowhead" refX="2" refY="0" orient="auto" style="display: none; overflow: visible;"><path d="M -7,3 -7,-3 0,0 z"></path></marker><marker id="arrowtail" refX="-2" refY="0" orient="auto" style="display: none; overflow: visible;"><path d="M 7,3 7,-3 0,0 z"></path></marker></defs><g id="waves_0"><g id="lanes_0" transform="translate(60.5, 0.5)"><g id="gmarks_0"><path id="gmark_0_0" d="m 0,5 0,230" style="stroke: #888888; stroke-width: 0.5px; stroke-dasharray: 2px, 2px;"></path><path id="gmark_1_0" d="m 40,5 0,230" style="stroke: #888888; stroke-width: 0.5px; stroke-dasharray: 2px, 2px;"></path><path id="gmark_2_0" d="m 80,5 0,230" style="stroke: #888888; stroke-width: 0.5px; stroke-dasharray: 2px, 2px;"></path><path id="gmark_3_0" d="m 120,5 0,230" style="stroke: #888888; stroke-width: 0.5px; stroke-dasharray: 2px, 2px;"></path><path id="gmark_4_0" d="m 160,5 0,230" style="stroke: #888888; stroke-width: 0.5px; stroke-dasharray: 2px, 2px;"></path><path id="gmark_5_0" d="m 200,5 0,230" style="stroke: #888888; stroke-width: 0.5px; stroke-dasharray: 2px, 2px;"></path><path id="gmark_6_0" d="m 240,5 0,230" style="stroke: #888888; stroke-width: 0.5px; stroke-dasharray: 2px, 2px;"></path><path id="gmark_7_0" d="m 280,5 0,230" style="stroke: #888888; stroke-width: 0.5px; stroke-dasharray: 2px, 2px;"></path><path id="gmark_8_0" d="m 320,5 0,230" style="stroke: #888888; stroke-width: 0.5px; stroke-dasharray: 2px, 2px;"></path><path id="gmark_9_0" d="m 360,5 0,230" style="stroke: #888888; stroke-width: 0.5px; stroke-dasharray: 2px, 2px;"></path><path id="gmark_10_0" d="m 400,5 0,230" style="stroke: #888888; stroke-width: 0.5px; stroke-dasharray: 2px, 2px;"></path><path id="gmark_11_0" d="m 440,5 0,230" style="stroke: #888888; stroke-width: 0.5px; stroke-dasharray: 2px, 2px;"></path><path id="gmark_12_0" d="m 480,5 0,230" style="stroke: #888888; stroke-width: 0.5px; stroke-dasharray: 2px, 2px;"></path><path id="gmark_13_0" d="m 520,5 0,230" style="stroke: #888888; stroke-width: 0.5px; stroke-dasharray: 2px, 2px;"></path><text x="20" y="235" text-anchor="middle" fill="#AAAAAA" xml:space="preserve">1</text><text x="60" y="235" text-anchor="middle" fill="#AAAAAA" xml:space="preserve">2</text><text x="100" y="235" text-anchor="middle" fill="#AAAAAA" xml:space="preserve">3</text><text x="140" y="235" text-anchor="middle" fill="#AAAAAA" xml:space="preserve">4</text><text x="180" y="235" text-anchor="middle" fill="#AAAAAA" xml:space="preserve">5</text><text x="220" y="235" text-anchor="middle" fill="#AAAAAA" xml:space="preserve">6</text><text x="260" y="235" text-anchor="middle" fill="#AAAAAA" xml:space="preserve">7</text><text x="300" y="235" text-anchor="middle" fill="#AAAAAA" xml:space="preserve">8</text><text x="340" y="235" text-anchor="middle" fill="#AAAAAA" xml:space="preserve">9</text><text x="380" y="235" text-anchor="middle" fill="#AAAAAA" xml:space="preserve">10</text><text x="420" y="235" text-anchor="middle" fill="#AAAAAA" xml:space="preserve">11</text><text x="460" y="235" text-anchor="middle" fill="#AAAAAA" xml:space="preserve">12</text><text x="500" y="235" text-anchor="middle" fill="#AAAAAA" xml:space="preserve">13</text></g><g id="wavelane_0_0" transform="translate(0,10)"><text x="-10" y="15" fill="#0041c4" text-anchor="end" xml:space="preserve">CS</text><g id="wavelane_draw_0_0" transform="translate(0, 0)"><use id="use_0_0_0" xlink:href="#000" transform="translate(0)"></use><use id="use_1_0_0" xlink:href="#000" transform="translate(20)"></use><use id="use_2_0_0" xlink:href="#0m1" transform="translate(40)"></use><use id="use_3_0_0" xlink:href="#111" transform="translate(60)"></use><use id="use_4_0_0" xlink:href="#111" transform="translate(80)"></use><use id="use_5_0_0" xlink:href="#111" transform="translate(100)"></use><use id="use_6_0_0" xlink:href="#111" transform="translate(120)"></use><use id="use_7_0_0" xlink:href="#111" transform="translate(140)"></use><use id="use_8_0_0" xlink:href="#111" transform="translate(160)"></use><use id="use_9_0_0" xlink:href="#111" transform="translate(180)"></use><use id="use_10_0_0" xlink:href="#111" transform="translate(200)"></use><use id="use_11_0_0" xlink:href="#111" transform="translate(220)"></use><use id="use_12_0_0" xlink:href="#111" transform="translate(240)"></use><use id="use_13_0_0" xlink:href="#111" transform="translate(260)"></use><use id="use_14_0_0" xlink:href="#111" transform="translate(280)"></use><use id="use_15_0_0" xlink:href="#111" transform="translate(300)"></use><use id="use_16_0_0" xlink:href="#111" transform="translate(320)"></use><use id="use_17_0_0" xlink:href="#111" transform="translate(340)"></use><use id="use_18_0_0" xlink:href="#111" transform="translate(360)"></use><use id="use_19_0_0" xlink:href="#111" transform="translate(380)"></use><use id="use_20_0_0" xlink:href="#111" transform="translate(400)"></use><use id="use_21_0_0" xlink:href="#111" transform="translate(420)"></use><use id="use_22_0_0" xlink:href="#1m0" transform="translate(440)"></use><use id="use_23_0_0" xlink:href="#000" transform="translate(460)"></use><use id="use_24_0_0" xlink:href="#000" transform="translate(480)"></use><use id="use_25_0_0" xlink:href="#000" transform="translate(500)"></use></g></g><g id="wavelane_1_0" transform="translate(0,40)"><text x="-10" y="15" fill="#0041c4" text-anchor="end" xml:space="preserve">ALE</text><g id="wavelane_draw_1_0" transform="translate(0, 0)"><use id="use_0_1_0" xlink:href="#000" transform="translate(0)"></use><use id="use_1_1_0" xlink:href="#000" transform="translate(20)"></use><use id="use_2_1_0" xlink:href="#0m1" transform="translate(40)"></use><use id="use_3_1_0" xlink:href="#111" transform="translate(60)"></use><use id="use_4_1_0" xlink:href="#111" transform="translate(80)"></use><use id="use_5_1_0" xlink:href="#111" transform="translate(100)"></use><use id="use_6_1_0" xlink:href="#1m0" transform="translate(120)"></use><use id="use_7_1_0" xlink:href="#000" transform="translate(140)"></use><use id="use_8_1_0" xlink:href="#000" transform="translate(160)"></use><use id="use_9_1_0" xlink:href="#000" transform="translate(180)"></use><use id="use_10_1_0" xlink:href="#000" transform="translate(200)"></use><use id="use_11_1_0" xlink:href="#000" transform="translate(220)"></use><use id="use_12_1_0" xlink:href="#000" transform="translate(240)"></use><use id="use_13_1_0" xlink:href="#000" transform="translate(260)"></use><use id="use_14_1_0" xlink:href="#000" transform="translate(280)"></use><use id="use_15_1_0" xlink:href="#000" transform="translate(300)"></use><use id="use_16_1_0" xlink:href="#000" transform="translate(320)"></use><use id="use_17_1_0" xlink:href="#000" transform="translate(340)"></use><use id="use_18_1_0" xlink:href="#000" transform="translate(360)"></use><use id="use_19_1_0" xlink:href="#000" transform="translate(380)"></use><use id="use_20_1_0" xlink:href="#000" transform="translate(400)"></use><use id="use_21_1_0" xlink:href="#000" transform="translate(420)"></use><use id="use_22_1_0" xlink:href="#000" transform="translate(440)"></use><use id="use_23_1_0" xlink:href="#000" transform="translate(460)"></use><use id="use_24_1_0" xlink:href="#000" transform="translate(480)"></use><use id="use_25_1_0" xlink:href="#000" transform="translate(500)"></use></g></g><g id="wavelane_2_0" transform="translate(0,70)"><text x="-10" y="15" fill="#0041c4" text-anchor="end" xml:space="preserve">WR</text><g id="wavelane_draw_2_0" transform="translate(0, 0)"><use id="use_0_2_0" xlink:href="#000" transform="translate(0)"></use><use id="use_1_2_0" xlink:href="#000" transform="translate(20)"></use><use id="use_2_2_0" xlink:href="#000" transform="translate(40)"></use><use id="use_3_2_0" xlink:href="#000" transform="translate(60)"></use><use id="use_4_2_0" xlink:href="#000" transform="translate(80)"></use><use id="use_5_2_0" xlink:href="#000" transform="translate(100)"></use><use id="use_6_2_0" xlink:href="#000" transform="translate(120)"></use><use id="use_7_2_0" xlink:href="#000" transform="translate(140)"></use><use id="use_8_2_0" xlink:href="#000" transform="translate(160)"></use><use id="use_9_2_0" xlink:href="#000" transform="translate(180)"></use><use id="use_10_2_0" xlink:href="#000" transform="translate(200)"></use><use id="use_11_2_0" xlink:href="#000" transform="translate(220)"></use><use id="use_12_2_0" xlink:href="#000" transform="translate(240)"></use><use id="use_13_2_0" xlink:href="#000" transform="translate(260)"></use><use id="use_14_2_0" xlink:href="#000" transform="translate(280)"></use><use id="use_15_2_0" xlink:href="#000" transform="translate(300)"></use><use id="use_16_2_0" xlink:href="#000" transform="translate(320)"></use><use id="use_17_2_0" xlink:href="#000" transform="translate(340)"></use><use id="use_18_2_0" xlink:href="#000" transform="translate(360)"></use><use id="use_19_2_0" xlink:href="#000" transform="translate(380)"></use><use id="use_20_2_0" xlink:href="#000" transform="translate(400)"></use><use id="use_21_2_0" xlink:href="#000" transform="translate(420)"></use><use id="use_22_2_0" xlink:href="#000" transform="translate(440)"></use><use id="use_23_2_0" xlink:href="#000" transform="translate(460)"></use><use id="use_24_2_0" xlink:href="#000" transform="translate(480)"></use><use id="use_25_2_0" xlink:href="#000" transform="translate(500)"></use></g></g><g id="wavelane_3_0" transform="translate(0,100)"><text x="-10" y="15" fill="#0041c4" text-anchor="end" xml:space="preserve">RD</text><g id="wavelane_draw_3_0" transform="translate(0, 0)"><use id="use_0_3_0" xlink:href="#000" transform="translate(0)"></use><use id="use_1_3_0" xlink:href="#000" transform="translate(20)"></use><use id="use_2_3_0" xlink:href="#000" transform="translate(40)"></use><use id="use_3_3_0" xlink:href="#000" transform="translate(60)"></use><use id="use_4_3_0" xlink:href="#000" transform="translate(80)"></use><use id="use_5_3_0" xlink:href="#000" transform="translate(100)"></use><use id="use_6_3_0" xlink:href="#000" transform="translate(120)"></use><use id="use_7_3_0" xlink:href="#000" transform="translate(140)"></use><use id="use_8_3_0" xlink:href="#000" transform="translate(160)"></use><use id="use_9_3_0" xlink:href="#000" transform="translate(180)"></use><use id="use_10_3_0" xlink:href="#000" transform="translate(200)"></use><use id="use_11_3_0" xlink:href="#000" transform="translate(220)"></use><use id="use_12_3_0" xlink:href="#0m1" transform="translate(240)"></use><use id="use_13_3_0" xlink:href="#111" transform="translate(260)"></use><use id="use_14_3_0" xlink:href="#111" transform="translate(280)"></use><use id="use_15_3_0" xlink:href="#111" transform="translate(300)"></use><use id="use_16_3_0" xlink:href="#111" transform="translate(320)"></use><use id="use_17_3_0" xlink:href="#111" transform="translate(340)"></use><use id="use_18_3_0" xlink:href="#111" transform="translate(360)"></use><use id="use_19_3_0" xlink:href="#111" transform="translate(380)"></use><use id="use_20_3_0" xlink:href="#111" transform="translate(400)"></use><use id="use_21_3_0" xlink:href="#111" transform="translate(420)"></use><use id="use_22_3_0" xlink:href="#1m0" transform="translate(440)"></use><use id="use_23_3_0" xlink:href="#000" transform="translate(460)"></use><use id="use_24_3_0" xlink:href="#000" transform="translate(480)"></use><use id="use_25_3_0" xlink:href="#000" transform="translate(500)"></use></g></g><g id="wavelane_4_0" transform="translate(0,130)"><text x="-10" y="15" fill="#0041c4" text-anchor="end" xml:space="preserve">BE</text><g id="wavelane_draw_4_0" transform="translate(0, 0)"><use id="use_0_4_0" xlink:href="#xxx" transform="translate(0)"></use><use id="use_1_4_0" xlink:href="#xxx" transform="translate(20)"></use><use id="use_2_4_0" xlink:href="#xxx" transform="translate(40)"></use><use id="use_3_4_0" xlink:href="#xxx" transform="translate(60)"></use><use id="use_4_4_0" xlink:href="#xxx" transform="translate(80)"></use><use id="use_5_4_0" xlink:href="#xxx" transform="translate(100)"></use><use id="use_6_4_0" xlink:href="#xxx" transform="translate(120)"></use><use id="use_7_4_0" xlink:href="#xxx" transform="translate(140)"></use><use id="use_8_4_0" xlink:href="#xxx" transform="translate(160)"></use><use id="use_9_4_0" xlink:href="#xxx" transform="translate(180)"></use><use id="use_10_4_0" xlink:href="#xxx" transform="translate(200)"></use><use id="use_11_4_0" xlink:href="#xxx" transform="translate(220)"></use><use id="use_12_4_0" xlink:href="#xmv-5" transform="translate(240)"></use><use id="use_13_4_0" xlink:href="#vvv-5" transform="translate(260)"></use><use id="use_14_4_0" xlink:href="#vvv-5" transform="translate(280)"></use><use id="use_15_4_0" xlink:href="#vvv-5" transform="translate(300)"></use><use id="use_16_4_0" xlink:href="#vvv-5" transform="translate(320)"></use><use id="use_17_4_0" xlink:href="#vvv-5" transform="translate(340)"></use><use id="use_18_4_0" xlink:href="#vvv-5" transform="translate(360)"></use><use id="use_19_4_0" xlink:href="#vvv-5" transform="translate(380)"></use><use id="use_20_4_0" xlink:href="#vvv-5" transform="translate(400)"></use><use id="use_21_4_0" xlink:href="#vvv-5" transform="translate(420)"></use><use id="use_22_4_0" xlink:href="#vmx-5" transform="translate(440)"></use><use id="use_23_4_0" xlink:href="#xxx" transform="translate(460)"></use><use id="use_24_4_0" xlink:href="#xxx" transform="translate(480)"></use><use id="use_25_4_0" xlink:href="#xxx" transform="translate(500)"></use><text x="346" y="15" text-anchor="middle" xml:space="preserve">BE</text></g></g><g id="wavelane_5_0" transform="translate(0,160)"><text x="-10" y="15" fill="#0041c4" text-anchor="end" xml:space="preserve">AD</text><g id="wavelane_draw_5_0" transform="translate(0, 0)"><use id="use_0_5_0" xlink:href="#zzz" transform="translate(0)"></use><use id="use_1_5_0" xlink:href="#zzz" transform="translate(20)"></use><use id="use_2_5_0" xlink:href="#zmv-3" transform="translate(40)"></use><use id="use_3_5_0" xlink:href="#vvv-3" transform="translate(60)"></use><use id="use_4_5_0" xlink:href="#vvv-3" transform="translate(80)"></use><use id="use_5_5_0" xlink:href="#vvv-3" transform="translate(100)"></use><use id="use_6_5_0" xlink:href="#vvv-3" transform="translate(120)"></use><use id="use_7_5_0" xlink:href="#vvv-3" transform="translate(140)"></use><use id="use_8_5_0" xlink:href="#vvv-3" transform="translate(160)"></use><use id="use_9_5_0" xlink:href="#vvv-3" transform="translate(180)"></use><use id="use_10_5_0" xlink:href="#vvv-3" transform="translate(200)"></use><use id="use_11_5_0" xlink:href="#vvv-3" transform="translate(220)"></use><use id="use_12_5_0" xlink:href="#vmz-3" transform="translate(240)"></use><use id="use_13_5_0" xlink:href="#zzz" transform="translate(260)"></use><use id="use_14_5_0" xlink:href="#zzz" transform="translate(280)"></use><use id="use_15_5_0" xlink:href="#zzz" transform="translate(300)"></use><use id="use_16_5_0" xlink:href="#zmx" transform="translate(320)"></use><use id="use_17_5_0" xlink:href="#xxx" transform="translate(340)"></use><use id="use_18_5_0" xlink:href="#xmv-4" transform="translate(360)"></use><use id="use_19_5_0" xlink:href="#vvv-4" transform="translate(380)"></use><use id="use_20_5_0" xlink:href="#vvv-4" transform="translate(400)"></use><use id="use_21_5_0" xlink:href="#vvv-4" transform="translate(420)"></use><use id="use_22_5_0" xlink:href="#vvv-4" transform="translate(440)"></use><use id="use_23_5_0" xlink:href="#vvv-4" transform="translate(460)"></use><use id="use_24_5_0" xlink:href="#vmz-4" transform="translate(480)"></use><use id="use_25_5_0" xlink:href="#zzz" transform="translate(500)"></use><text x="146" y="15" text-anchor="middle" xml:space="preserve">ADDR</text><text x="426" y="15" text-anchor="middle" xml:space="preserve">READDATA</text></g></g><g id="wavelane_6_0" transform="translate(0,190)"><text x="-10" y="15" fill="#0041c4" text-anchor="end" xml:space="preserve">ACK</text><g id="wavelane_draw_6_0" transform="translate(0, 0)"><use id="use_0_6_0" xlink:href="#000" transform="translate(0)"></use><use id="use_1_6_0" xlink:href="#000" transform="translate(20)"></use><use id="use_2_6_0" xlink:href="#000" transform="translate(40)"></use><use id="use_3_6_0" xlink:href="#000" transform="translate(60)"></use><use id="use_4_6_0" xlink:href="#000" transform="translate(80)"></use><use id="use_5_6_0" xlink:href="#000" transform="translate(100)"></use><use id="use_6_6_0" xlink:href="#000" transform="translate(120)"></use><use id="use_7_6_0" xlink:href="#000" transform="translate(140)"></use><use id="use_8_6_0" xlink:href="#000" transform="translate(160)"></use><use id="use_9_6_0" xlink:href="#000" transform="translate(180)"></use><use id="use_10_6_0" xlink:href="#000" transform="translate(200)"></use><use id="use_11_6_0" xlink:href="#000" transform="translate(220)"></use><use id="use_12_6_0" xlink:href="#000" transform="translate(240)"></use><use id="use_13_6_0" xlink:href="#000" transform="translate(260)"></use><use id="use_14_6_0" xlink:href="#000" transform="translate(280)"></use><use id="use_15_6_0" xlink:href="#000" transform="translate(300)"></use><use id="use_16_6_0" xlink:href="#000" transform="translate(320)"></use><use id="use_17_6_0" xlink:href="#000" transform="translate(340)"></use><use id="use_18_6_0" xlink:href="#0m1" transform="translate(360)"></use><use id="use_19_6_0" xlink:href="#111" transform="translate(380)"></use><use id="use_20_6_0" xlink:href="#111" transform="translate(400)"></use><use id="use_21_6_0" xlink:href="#111" transform="translate(420)"></use><use id="use_22_6_0" xlink:href="#1m0" transform="translate(440)"></use><use id="use_23_6_0" xlink:href="#000" transform="translate(460)"></use><use id="use_24_6_0" xlink:href="#000" transform="translate(480)"></use><use id="use_25_6_0" xlink:href="#000" transform="translate(500)"></use></g></g><g id="wavearcs_0"></g><g id="wavegaps_0"><g id="wavegap_0_0" transform="translate(0,10)"><use id="guse_7_0_0" xlink:href="#gap" transform="translate(300)"></use></g><g id="wavegap_1_0" transform="translate(0,40)"><use id="guse_7_1_0" xlink:href="#gap" transform="translate(300)"></use></g><g id="wavegap_2_0" transform="translate(0,70)"><use id="guse_7_2_0" xlink:href="#gap" transform="translate(300)"></use></g><g id="wavegap_3_0" transform="translate(0,100)"><use id="guse_7_3_0" xlink:href="#gap" transform="translate(300)"></use></g><g id="wavegap_4_0" transform="translate(0,130)"><use id="guse_7_4_0" xlink:href="#gap" transform="translate(300)"></use></g><g id="wavegap_5_0" transform="translate(0,160)"><use id="guse_7_5_0" xlink:href="#gap" transform="translate(300)"></use></g><g id="wavegap_6_0" transform="translate(0,190)"><use id="guse_7_6_0" xlink:href="#gap" transform="translate(300)"></use></g></g></g><g id="groups_0"></g></g></svg>